HIERARCHY
ROOT Hips
{
	OFFSET 0.000000 0.000000 0.000000
	CHANNELS 6 Xposition Yposition Zposition Zrotation Yrotation Xrotation 
	JOINT LHipJoint
	{
		OFFSET 0.000000 0.000000 0.000000
		CHANNELS 3 Zrotation Yrotation Xrotation
		JOINT LeftUpLeg
		{
			OFFSET 1.363060 -1.794630 0.839290
			CHANNELS 3 Zrotation Yrotation Xrotation
			JOINT LeftLeg
			{
				OFFSET 2.448110 -6.726130 0.000000
				CHANNELS 3 Zrotation Yrotation Xrotation
				JOINT LeftFoot
				{
					OFFSET 2.562200 -7.039590 0.000000
					CHANNELS 3 Zrotation Yrotation Xrotation
					JOINT LeftToeBase
					{
						OFFSET 0.157640 -0.433110 2.322550
						CHANNELS 3 Zrotation Yrotation Xrotation
						End Site
						{
							OFFSET 0.000000 0.000000 0.000000
						}
					}
				}
			}
		}
	}
	JOINT RHipJoint
	{
		OFFSET 0.000000 0.000000 0.000000
		CHANNELS 3 Zrotation Yrotation Xrotation
		JOINT RightUpLeg
		{
			OFFSET -1.305520 -1.794630 0.839290
			CHANNELS 3 Zrotation Yrotation Xrotation
			JOINT RightLeg
			{
				OFFSET -2.542530 -6.985550 0.000000
				CHANNELS 3 Zrotation Yrotation Xrotation
				JOINT RightFoot
				{
					OFFSET -2.568260 -7.056230 0.000000
					CHANNELS 3 Zrotation Yrotation Xrotation
					JOINT RightToeBase
					{
						OFFSET -0.164730 -0.452590 2.363150
						CHANNELS 3 Zrotation Yrotation Xrotation
						End Site
						{
							OFFSET 0.000000 0.000000 0.000000
						}
					}
				}
			}
		}
	}
	JOINT LowerBack
	{
		OFFSET 0.000000 0.000000 0.000000
		CHANNELS 3 Zrotation Yrotation Xrotation
		JOINT Spine
		{
			OFFSET 0.028270 2.035590 -0.193380
			CHANNELS 3 Zrotation Yrotation Xrotation
			JOINT Spine1
			{
				OFFSET 0.056720 2.048850 -0.042750
				CHANNELS 3 Zrotation Yrotation Xrotation
				JOINT Neck
				{
					OFFSET 0.000000 0.000000 0.000000
					CHANNELS 3 Zrotation Yrotation Xrotation
					JOINT Neck1
					{
						OFFSET -0.054170 1.746240 0.172020
						CHANNELS 3 Zrotation Yrotation Xrotation
						JOINT Head
						{
							OFFSET 0.104070 1.761360 -0.123970
							CHANNELS 3 Zrotation Yrotation Xrotation
							End Site
							{
								OFFSET 0.000000 0.000000 0.000000
							}
						}
					}
				}
				JOINT LeftShoulder
				{
					OFFSET 0.000000 0.000000 0.000000
					CHANNELS 3 Zrotation Yrotation Xrotation
					JOINT LeftArm
					{
						OFFSET 3.362410 1.200890 -0.311210
						CHANNELS 3 Zrotation Yrotation Xrotation
						JOINT LeftForeArm
						{
							OFFSET 4.983000 -0.000000 -0.000000
							CHANNELS 3 Zrotation Yrotation Xrotation
							JOINT LeftHand
							{
								OFFSET 3.483560 -0.000000 -0.000000
								CHANNELS 3 Zrotation Yrotation Xrotation
								JOINT LeftFingerBase
								{
									OFFSET 0.000000 0.000000 0.000000
									CHANNELS 3 Zrotation Yrotation Xrotation
									JOINT LeftHandIndex1
									{
										OFFSET 0.715260 -0.000000 -0.000000
										CHANNELS 3 Zrotation Yrotation Xrotation
										End Site
										{
											OFFSET 0.000000 0.000000 0.000000
										}
									}
								}
								JOINT LThumb
								{
									OFFSET 0.000000 0.000000 0.000000
									CHANNELS 3 Zrotation Yrotation Xrotation
									End Site
									{
										OFFSET 0.000000 0.000000 0.000000
									}
								}
							}
						}
					}
				}
				JOINT RightShoulder
				{
					OFFSET 0.000000 0.000000 0.000000
					CHANNELS 3 Zrotation Yrotation Xrotation
					JOINT RightArm
					{
						OFFSET -3.136600 1.374050 -0.404650
						CHANNELS 3 Zrotation Yrotation Xrotation
						JOINT RightForeArm
						{
							OFFSET -5.241900 -0.000000 -0.000000
							CHANNELS 3 Zrotation Yrotation Xrotation
							JOINT RightHand
							{
								OFFSET -3.444170 -0.000000 -0.000000
								CHANNELS 3 Zrotation Yrotation Xrotation
								JOINT RightFingerBase
								{
									OFFSET 0.000000 0.000000 0.000000
									CHANNELS 3 Zrotation Yrotation Xrotation
									JOINT RightHandIndex1
									{
										OFFSET -0.622530 -0.000000 -0.000000
										CHANNELS 3 Zrotation Yrotation Xrotation
										End Site
										{
											OFFSET 0.000000 0.000000 0.000000
										}
									}
								}
								JOINT RThumb
								{
									OFFSET 0.000000 0.000000 0.000000
									CHANNELS 3 Zrotation Yrotation Xrotation
									End Site
									{
										OFFSET 0.000000 0.000000 0.000000
									}
								}
							}
						}
					}
				}
			}
		}
	}
}
MOTION
Frames: 5
Frame Time: 0.008333
0.053407 16.890342 4.354148 154.429955 -87.692750 -142.894026 -9.947762 1.077532 2.774720 -13.300228 5.000547 -33.839077 -2.811526 -0.325937 13.970644 0.443025 3.020143 0.757260 0.775700 0.000000 -33.109600 11.219745 -0.989434 0.088570 -0.126591 -9.469947 -33.895224 -0.943586 -4.005446 63.262333 -1.881231 -9.439587 -3.157579 -0.871200 0.000001 -67.086600 -3.676879 -1.466945 -4.255237 -1.579527 -1.282013 -4.007898 -7.613924 -1.170810 -2.011234 11.360076 -5.336804 -3.414974 -4.209402 -0.354172 1.100729 0.000000 0.000000 0.000000 5.098661 7.142028 1.149040 -64.855925 0.384818 11.042960 -179.624864 -82.463169 179.968401 4.992322 5.684395 0.241243 -0.095523 0.309306 0.000000 0.000000 0.000000 0.000000 0.000000 0.000000 0.000000 14.965848 1.402625 -1.943455 72.292857 37.154691 19.831593 179.852137 79.967409 179.925889 -7.282931 10.632210 -0.739119 0.110423 -0.792187 -0.000000 0.000000 0.000000 0.000000 0.000000 0.000000 0.000000 
-0.027781 16.915809 4.362986 154.776399 -87.815579 -143.149979 -9.964052 1.127832 2.796014 -13.327724 5.248577 -33.321575 -2.864991 -0.402368 13.197975 0.392243 2.726304 0.813752 0.735099 -0.000000 -33.157600 11.159520 -0.926079 0.189593 -0.262557 -9.713976 -34.252149 -0.765583 -3.909960 61.457360 -1.766620 -8.683905 -3.206933 -0.807600 -0.000001 -67.398500 -3.566219 -1.527642 -4.404661 -1.545504 -1.350663 -4.020064 -7.605910 -1.229458 -2.005517 11.329154 -5.426100 -3.264198 -4.239425 -0.357650 1.143888 0.000000 0.000000 0.000000 5.643120 6.846437 1.048149 -64.783343 -0.651110 11.085148 -179.557326 -80.785743 179.967622 4.904861 5.497468 0.228051 -0.094861 0.330803 0.000000 0.000000 0.000000 0.000000 0.000000 0.000000 0.000000 14.809270 1.209287 -1.967681 72.505174 37.302179 20.071591 179.810017 79.003066 179.924807 -7.337653 10.784661 -0.756034 0.115379 -0.806439 -0.000000 0.000000 0.000000 0.000000 0.000000 0.000000 0.000000 
-0.109021 16.939669 4.369958 155.257476 -87.921251 -143.521831 -9.981154 1.182024 2.813893 -13.383499 5.569223 -32.862901 -2.927385 -0.476980 12.432646 0.331115 2.362983 0.904295 0.686200 -0.000000 -33.250600 11.096559 -0.877470 0.316392 -0.385698 -9.919537 -34.557157 -0.570330 -3.799825 59.442667 -1.625909 -7.771341 -3.234456 -0.733699 -0.000000 -67.927700 -3.467957 -1.582672 -4.584532 -1.514814 -1.413708 -4.035365 -7.598695 -1.282464 -1.986375 11.300891 -5.518485 -3.124978 -4.269396 -0.361061 1.184028 0.000000 0.000000 0.000000 6.204466 6.597075 0.943204 -64.724896 -1.698276 11.110365 -179.494287 -79.152414 179.966771 4.833048 5.331947 0.216858 -0.094558 0.351903 -0.000000 0.000000 0.000000 0.000000 0.000000 0.000000 0.000000 14.651474 1.012849 -1.994569 72.721722 37.446940 20.318389 179.765643 78.044770 179.923840 -7.383483 10.945525 -0.772739 0.120431 -0.821182 -0.000000 0.000000 0.000000 0.000000 0.000000 0.000000 0.000000 
-0.190128 16.962087 4.374553 155.287073 -88.011087 -143.435510 -9.986428 1.237922 2.833183 -13.464105 5.886755 -32.387842 -2.993403 -0.557758 11.607094 0.269584 2.014903 1.056012 0.643801 0.000000 -33.450300 11.043893 -0.840284 0.458674 -0.531805 -10.108144 -34.784725 -0.356178 -3.680022 57.222367 -1.463295 -6.727703 -3.280694 -0.646600 -0.000000 -68.610700 -3.402409 -1.638717 -4.782761 -1.491558 -1.475678 -4.052476 -7.592650 -1.334153 -1.960182 11.278505 -5.605386 -2.991413 -4.300571 -0.364546 1.222426 0.000000 0.000000 0.000000 6.791646 6.374458 0.835754 -64.685686 -2.722990 11.106357 -179.436901 -77.557218 179.965779 4.786766 5.181281 0.207663 -0.094632 0.372553 0.000000 0.000000 0.000000 0.000000 0.000000 0.000000 0.000000 14.502905 0.819463 -2.021849 72.940754 37.583070 20.567869 179.719267 77.095284 179.922985 -7.421068 11.113301 -0.789335 0.125531 -0.836416 -0.000000 0.000000 0.000000 0.000000 0.000000 0.000000 0.000000 
-0.271102 16.982740 4.378091 155.980124 -88.077212 -143.996359 -10.004589 1.294640 2.845443 -13.551622 6.291599 -32.010324 -3.064273 -0.628926 10.866183 0.200080 1.589322 1.195144 0.586600 0.000000 -33.637800 10.976084 -0.816998 0.625205 -0.633765 -10.225123 -34.946026 -0.126900 -3.539226 54.816852 -1.289559 -5.622574 -3.374886 -0.552200 0.000000 -69.276700 -3.330071 -1.684678 -5.005280 -1.467517 -1.529243 -4.071526 -7.586218 -1.377655 -1.918792 11.251238 -5.692357 -2.873801 -4.331561 -0.367895 1.256629 0.000000 0.000000 0.000000 7.372858 6.214689 0.725156 -64.658583 -3.757078 11.095550 -179.384038 -76.002182 179.964478 4.778443 5.048121 0.200969 -0.095862 0.392699 0.000000 0.000000 0.000000 0.000000 0.000000 0.000000 0.000000 14.346733 0.628620 -2.053332 73.157997 37.725943 20.825908 179.670288 76.157239 179.922254 -7.451087 11.281349 -0.805224 0.130709 -0.851881 -0.000000 0.000000 0.000000 0.000000 0.000000 0.000000 0.000000 
